<?xml version="1.0" standalone="no"?>
<!DOCTYPE svg PUBLIC "-//W3C//DTD SVG 20010904//EN"
 "http://www.w3.org/TR/2001/REC-SVG-20010904/DTD/svg10.dtd">
<svg version="1.0" xmlns="http://www.w3.org/2000/svg"
 width="900.000000pt" height="600.000000pt" viewBox="0 0 900.000000 600.000000"
 preserveAspectRatio="xMidYMid meet">
<metadata>
Created by potrace 1.10, written by Peter Selinger 2001-2011
</metadata>
<g transform="translate(0.000000,600.000000) scale(0.100000,-0.100000)"
fill="#ffffff" stroke="none">
<path d="M4835 4167 c-4 -10 -5 -21 -1 -24 10 -10 18 4 13 24 -4 17 -4 17 -12
0z"/>
<path d="M4775 4080 c-3 -5 3 -10 14 -10 12 0 21 5 21 10 0 6 -6 10 -14 10 -8
0 -18 -4 -21 -10z"/>
<path d="M4357 3973 c-11 -10 -8 -43 3 -43 6 0 10 11 10 25 0 26 -2 29 -13 18z"/>
<path d="M4220 3955 c0 -8 5 -15 10 -15 6 0 10 7 10 15 0 8 -4 15 -10 15 -5 0
-10 -7 -10 -15z"/>
<path d="M4260 3900 c0 -6 17 -10 37 -10 43 0 41 5 -4 13 -19 4 -33 2 -33 -3z"/>
<path d="M3709 3632 c-62 -37 -59 16 -62 -1037 l-2 -960 -142 3 c-175 5 -183
3 -183 -49 0 -21 4 -39 9 -39 5 0 12 -16 15 -35 4 -19 11 -35 16 -35 6 0 10
-7 10 -15 0 -9 16 -30 35 -49 19 -18 31 -36 28 -40 -4 -3 -130 -6 -282 -6
l-276 0 3 737 c4 807 1 884 -30 923 l-20 25 -452 0 -451 0 -25 -25 -25 -25 -2
-815 -1 -815 -607 -2 c-399 -1 -611 -5 -618 -12 -37 -37 -116 -36 3843 -35
2898 1 3834 4 3842 12 32 32 -9 34 -676 32 -366 0 -666 2 -666 5 0 4 18 27 39
53 21 26 42 58 46 72 4 14 11 30 15 35 15 21 20 66 9 86 -10 20 -17 21 -167
18 l-157 -4 -2 955 c-1 525 -2 962 -2 971 -1 9 -17 32 -36 52 l-36 37 -1482
-1 c-1336 -1 -1485 -2 -1508 -17z m2989 -50 l32 -29 0 -959 0 -959 -1167 3
c-643 1 -1325 3 -1517 5 l-349 2 1 946 c1 600 5 956 12 973 5 14 16 26 25 26
8 0 15 5 15 10 0 7 493 10 1458 10 l1458 0 32 -28z m-4458 -593 c0 -17 -12
-18 -156 -21 -86 -2 -158 1 -161 5 -3 4 1 14 7 22 9 11 45 15 148 17 156 3
162 3 162 -23z m64 25 c22 -9 20 -31 -4 -44 -16 -9 -22 -8 -26 5 -6 15 1 45
10 45 2 0 11 -3 20 -6z m512 -19 c8 -7 14 -16 14 -19 0 -3 -90 -6 -200 -6
-191 0 -200 1 -200 19 0 26 6 27 203 23 126 -3 173 -7 183 -17z m15 -785 l0
-715 -456 0 -456 0 0 713 c1 391 1 714 1 716 0 2 205 4 455 3 l456 -2 0 -715z
m4219 -641 c0 -19 -52 -116 -76 -143 -54 -57 62 -54 -1759 -54 -1876 0 -1721
-6 -1776 72 -16 23 -33 46 -38 52 -5 7 -13 28 -16 48 l-7 36 1836 0 c1290 0
1836 -3 1836 -11z m-4749 -133 c-6 -7 -10 -24 -9 -37 l3 -24 -165 -3 c-91 -1
-175 0 -186 3 -21 5 -39 49 -27 67 2 5 92 8 200 8 164 0 194 -2 184 -14z m97
7 c-10 -2 -28 -2 -40 0 -13 2 -5 4 17 4 22 1 32 -1 23 -4z m434 -23 c-6 -47
-23 -51 -207 -48 l-170 3 -1 26 c-1 14 -4 31 -8 38 -6 9 41 11 191 9 l198 -3
-3 -25z"/>
<path d="M5193 3593 c-21 -8 -15 -30 9 -36 27 -8 38 -1 38 24 0 19 -19 24 -47
12z"/>
<path d="M3780 3520 c-20 -20 -20 -32 -20 -868 l0 -848 25 -22 25 -22 1400 0
c1273 0 1403 1 1425 16 l25 16 0 857 c0 522 -4 862 -10 871 -8 13 -180 15
-1430 18 -1411 2 -1420 2 -1440 -18z m2835 -863 l0 -837 -1402 -3 c-1161 -2
-1404 0 -1408 11 -8 20 -6 1658 2 1665 3 4 637 6 1407 5 l1401 -3 0 -838z"/>
<path d="M5810 3395 c0 -10 7 -15 18 -13 21 4 19 22 -2 26 -10 2 -16 -3 -16
-13z"/>
<path d="M5934 3338 c-3 -5 43 -7 103 -7 119 2 113 7 -15 11 -46 2 -86 0 -88
-4z"/>
<path d="M6295 3340 l-120 -5 140 -7 c76 -3 143 -4 148 -1 12 7 -14 23 -33 21
-8 -1 -69 -4 -135 -8z"/>
<path d="M5923 3278 c-5 -10 -23 -9 162 -11 88 0 161 3 162 8 4 10 -317 13
-324 3z"/>
<path d="M4207 3152 c-15 -17 -17 -72 -17 -581 l0 -563 23 -19 c21 -18 52 -18
699 -19 627 0 679 1 698 17 20 17 20 29 20 587 0 530 -1 570 -17 582 -15 11
-149 13 -704 14 -652 0 -687 -1 -702 -18z m1298 -42 c-5 -8 -11 -8 -17 -2 -6
6 -7 16 -3 22 5 8 11 8 17 2 6 -6 7 -16 3 -22z m92 -10 c1 -19 3 -46 4 -60 2
-14 2 -253 1 -533 l-2 -507 -687 2 -688 3 -5 525 c-3 301 -1 530 4 538 7 10
145 12 674 12 365 -1 666 1 669 4 3 2 0 13 -6 24 -12 22 -4 34 18 30 10 -2 17
-16 18 -38z"/>
<path d="M4545 2951 c-3 -6 4 -15 15 -21 11 -6 20 -20 20 -31 0 -11 7 -22 15
-25 9 -4 15 -19 15 -40 0 -19 5 -34 10 -34 6 0 10 16 10 35 0 19 -4 35 -10 35
-5 0 -10 10 -10 23 0 30 -53 77 -65 58z"/>
<path d="M4380 2940 c0 -5 -6 -10 -12 -10 -22 0 -60 -48 -56 -70 4 -28 22 -26
26 2 5 27 46 68 71 68 9 0 22 -5 28 -11 13 -13 33 -4 33 17 0 10 -12 14 -45
14 -25 0 -45 -4 -45 -10z"/>
<path d="M5436 2845 c-8 -19 -19 -35 -24 -35 -5 0 -35 -26 -67 -57 -85 -83
-173 -117 -205 -78 -7 8 -27 15 -44 15 -17 0 -40 7 -50 15 -30 23 -42 18 -54
-22 -7 -21 -29 -57 -49 -80 -50 -54 -116 -133 -125 -146 -10 -17 -69 -12 -83
6 -7 10 -19 17 -27 17 -9 0 -21 7 -28 15 -7 8 -18 15 -26 15 -7 0 -18 9 -24
19 -31 60 -69 66 -93 16 -9 -19 -21 -35 -25 -35 -5 0 -36 -26 -68 -58 -32 -32
-76 -66 -96 -75 -43 -20 -47 -36 -18 -62 16 -15 22 -15 35 -5 8 7 15 18 15 25
0 8 15 27 33 43 17 17 57 53 87 81 66 61 95 65 150 21 21 -16 44 -30 50 -30 7
0 30 -18 51 -40 21 -22 45 -40 52 -40 8 0 20 15 27 33 12 30 77 113 142 181
15 17 28 34 28 38 0 13 65 38 98 38 16 0 35 -7 42 -15 7 -8 25 -15 39 -15 15
0 36 -7 47 -15 28 -22 41 -18 52 14 12 33 20 42 111 121 34 30 72 57 83 60 47
12 50 70 3 70 -19 0 -28 -8 -39 -35z"/>
<path d="M4316 2793 c-14 -14 -5 -46 21 -74 16 -16 32 -29 36 -29 5 0 15 -7
24 -16 18 -18 94 -16 101 4 2 8 -10 12 -45 12 -40 0 -54 5 -80 31 -18 16 -33
39 -33 49 0 20 -13 33 -24 23z"/>
<path d="M4580 2770 c0 -11 -6 -20 -12 -20 -20 0 -60 -47 -48 -55 12 -7 90 66
90 84 0 6 -7 11 -15 11 -8 0 -15 -9 -15 -20z"/>
<path d="M5450 2615 c-14 -17 -16 -503 -2 -517 6 -6 20 -8 33 -6 l24 3 3 259
c2 264 1 275 -34 276 -6 0 -17 -7 -24 -15z"/>
<path d="M5210 2300 l0 -211 38 3 37 3 0 205 0 205 -37 3 -38 3 0 -211z"/>
<path d="M4548 2349 c-16 -9 -18 -26 -18 -129 0 -110 2 -120 20 -130 12 -6 30
-8 40 -5 19 6 20 16 20 135 0 107 -3 129 -16 134 -21 8 -26 7 -46 -5z"/>
<path d="M4999 2340 c-25 -14 -21 -238 4 -252 10 -5 26 -6 37 -3 19 6 20 16
20 130 0 103 -3 124 -16 129 -20 8 -26 7 -45 -4z"/>
<path d="M4767 2303 c-4 -3 -7 -53 -7 -110 0 -113 5 -123 56 -106 26 9 27 10
27 107 0 103 -6 116 -49 116 -11 0 -24 -3 -27 -7z"/>
<path d="M4310 2166 c0 -82 11 -96 61 -77 22 8 24 14 24 77 l-1 69 -42 3 -42
3 0 -75z"/>
<path d="M2660 2540 l0 -181 30 3 31 3 1 175 1 175 -32 3 -31 3 0 -181z"/>
<path d="M2287 2623 c-3 -4 -4 -64 -2 -133 l2 -125 29 0 29 0 0 130 0 130 -27
3 c-14 2 -28 0 -31 -5z"/>
<path d="M2540 2496 l0 -136 30 0 31 0 -3 133 -3 132 -27 3 -28 3 0 -135z"/>
<path d="M2035 2567 c-3 -7 -4 -56 -3 -108 l3 -94 28 0 29 0 1 105 2 105 -28
3 c-16 2 -29 -2 -32 -11z"/>
<path d="M2420 2563 c-1 -5 -1 -51 -2 -103 l-1 -95 31 -3 32 -3 0 105 0 106
-30 0 c-16 0 -30 -3 -30 -7z"/>
<path d="M2167 2543 c-4 -3 -7 -46 -7 -95 l0 -88 30 0 c17 0 30 3 30 8 4 67 2
161 -4 170 -8 13 -39 16 -49 5z"/>
<path d="M2193 1972 c-58 -1 -103 -7 -103 -12 0 -6 114 -10 300 -10 193 0 300
4 300 10 0 6 -10 11 -22 11 -55 3 -382 4 -475 1z"/>
<path d="M2290 1750 l-205 -6 213 -2 c140 -1 211 1 207 8 -3 6 -7 9 -8 8 -1
-1 -94 -5 -207 -8z"/>
<path d="M2600 1640 c-11 -7 -3 -10 30 -9 34 0 40 2 25 9 -27 12 -37 12 -55 0z"/>
<path d="M2480 3560 c-12 -8 -12 -10 2 -15 23 -9 50 -3 56 13 4 14 -36 16 -58
2z"/>
<path d="M2606 3548 c-9 -34 -8 -38 12 -38 27 0 31 8 18 35 -14 31 -22 31 -30
3z"/>
<path d="M3170 3482 c0 -18 5 -32 10 -32 6 0 8 11 4 28 -10 39 -14 40 -14 4z"/>
<path d="M2460 3480 c0 -17 36 -30 48 -18 19 19 14 28 -18 28 -16 0 -30 -4
-30 -10z"/>
<path d="M7311 3467 c-7 -9 -22 -17 -34 -19 -26 -4 -24 -20 3 -30 13 -5 23 0
35 18 19 29 16 54 -4 31z"/>
<path d="M2575 3450 c-8 -13 20 -24 41 -16 20 8 9 26 -16 26 -10 0 -22 -5 -25
-10z"/>
<path d="M7388 3454 c-11 -16 -13 -68 -4 -82 8 -14 46 -16 46 -3 0 5 -5 11
-11 13 -6 2 -14 22 -18 43 -4 22 -10 35 -13 29z"/>
<path d="M7220 3366 c0 -3 9 -20 20 -38 17 -28 20 -30 26 -14 9 22 -7 50 -30
54 -9 2 -16 1 -16 -2z"/>
<path d="M7320 3289 c0 -18 4 -20 33 -14 62 14 66 35 7 35 -34 0 -40 -3 -40
-21z"/>
<path d="M1410 1695 c0 -8 5 -15 10 -15 6 0 10 7 10 15 0 8 -4 15 -10 15 -5 0
-10 -7 -10 -15z"/>
<path d="M1322 1678 c-19 -19 -14 -30 11 -26 12 2 22 9 22 17 0 19 -18 24 -33
9z"/>
<path d="M1440 1616 c0 -8 5 -18 10 -21 6 -3 10 3 10 14 0 12 -4 21 -10 21 -5
0 -10 -6 -10 -14z"/>
<path d="M1346 1591 c-3 -5 1 -12 10 -15 25 -10 34 -7 34 9 0 16 -35 21 -44 6z"/>
</g>
</svg>
